<?xml version="1.0" encoding="UTF-8"?>
<svg width="21px" height="24px" viewBox="0 0 21 24" version="1.1" xmlns="http://www.w3.org/2000/svg" xmlns:xlink="http://www.w3.org/1999/xlink">
    <!-- Generator: Sketch 64 (93537) - https://sketch.com -->
    <title>icons8-chat_bubble</title>
    <desc>Created with Sketch.</desc>
    <g id="Page-1" stroke="none" stroke-width="1" fill="none" fill-rule="evenodd">
        <g id="icons8-chat_bubble" fill="#FFFFFF" fill-rule="nonzero">
            <path d="M10.5,0 C4.77604449,0 0,4.52156598 0,10.24 C0,15.9584336 4.77604449,20.48 10.5,20.48 C10.8634764,20.48 11.1984159,20.4009586 11.55,20.364445 L11.55,24 L13.1680668,22.8755558 C15.4383579,21.2965877 20.3542899,17.1979822 20.9405269,11.315555 C20.9776949,10.9656166 21,10.6072121 21,10.24 C21,4.52156598 16.2239553,0 10.5,0 Z M10.5,2.27555556 C15.2151447,2.27555556 18.9,5.90502958 18.9,10.24 C18.9,10.5137459 18.8843455,10.7868456 18.8548825,11.0622219 L18.8548825,11.0666661 L18.8528319,11.0711114 C18.4899729,14.7126386 15.7998792,17.5728071 13.65,19.4377774 L13.65,17.7177782 L12.3928707,17.9933332 C11.7779372,18.1278436 11.1460923,18.2044444 10.5,18.2044444 C5.78485551,18.2044444 2.1,14.5749709 2.1,10.24 C2.1,5.90502958 5.78485551,2.27555556 10.5,2.27555556 Z M5.25,9.10222222 L5.25,11.3777778 L7.35,11.3777778 L7.35,9.10222222 L5.25,9.10222222 Z M9.45,9.10222222 L9.45,11.3777778 L11.55,11.3777778 L11.55,9.10222222 L9.45,9.10222222 Z M13.65,9.10222222 L13.65,11.3777778 L15.75,11.3777778 L15.75,9.10222222 L13.65,9.10222222 Z" id="Shape"></path>
        </g>
    </g>
</svg>