<?xml version="1.0" encoding="UTF-8"?>
<svg width="15px" height="21px" viewBox="0 0 15 21" version="1.1" xmlns="http://www.w3.org/2000/svg" xmlns:xlink="http://www.w3.org/1999/xlink">
    <!-- Generator: Sketch 64 (93537) - https://sketch.com -->
    <title>icons8-marker</title>
    <desc>Created with Sketch.</desc>
    <g id="Page-1" stroke="none" stroke-width="1" fill="none" fill-rule="evenodd">
        <g id="icons8-marker" fill="#000000" fill-rule="nonzero">
            <path d="M7.5,0 C3.36395519,0 0,3.29472594 0,7.34313043 C0,12.0498205 6.40003928,19.6954531 6.6724862,20.0177716 L7.5,21 L8.32751327,20.0177716 C8.59996018,19.6944032 15,12.0498205 15,7.34313043 C15,3.29367594 11.6360443,0 7.5,0 Z M7.49999973,2.09979491 C10.4529382,2.09979491 12.8547487,4.45276273 12.8547487,7.34313043 C12.8547487,10.1831028 9.51439072,15.0675051 7.49999973,17.6555023 C5.48560874,15.0696049 2.14525132,10.1873024 2.14525132,7.34313043 C2.14525132,4.45276273 4.54706129,2.09979491 7.49999973,2.09979491 Z M7.49999973,4.71428568 C6.0187037,4.71428568 4.81843558,5.88912093 4.81843558,7.33902932 C4.81843558,8.7889377 6.0187037,9.96377296 7.49999973,9.96377296 C8.98129577,9.96377296 10.1815639,8.7889377 10.1815639,7.33902932 C10.1815639,5.88912093 8.98129577,4.71428568 7.49999973,4.71428568 Z" id="Shape"></path>
        </g>
    </g>
</svg>