<?xml version="1.0" encoding="UTF-8"?>
<svg width="24px" height="24px" viewBox="0 0 24 24" version="1.1" xmlns="http://www.w3.org/2000/svg" xmlns:xlink="http://www.w3.org/1999/xlink">
    <!-- Generator: Sketch 64 (93537) - https://sketch.com -->
    <title>Shape</title>
    <desc>Created with Sketch.</desc>
    <g id="Page-1" stroke="none" stroke-width="1" fill="none" fill-rule="evenodd">
        <g id="icons8-search" transform="translate(1.000000, 1.000000)" fill="#FFFFFF" fill-rule="nonzero" stroke="#FFFFFF" stroke-width="0.3">
            <path d="M9.16112474,0 C4.11242624,0 0,4.11242624 0,9.16112474 C0,14.2098233 4.11242624,18.3222495 9.16112474,18.3222495 C11.3565956,18.3222495 13.3728465,17.5426249 14.9530315,16.2484713 L20.422867,21.7183068 C20.6526432,21.9576328 20.9938497,22.0540397 21.314894,21.9703466 C21.6359383,21.8866535 21.8866535,21.6359383 21.9703466,21.314894 C22.0540397,20.9938497 21.9576328,20.6526432 21.7183068,20.422867 L16.2484713,14.9530315 C17.5426249,13.3728465 18.3222495,11.3565956 18.3222495,9.16112474 C18.3222495,4.11242624 14.2098233,0 9.16112474,0 Z M9.16112474,1.83222495 C13.2196157,1.83222495 16.4900245,5.10263417 16.4900245,9.16112474 C16.4900245,13.2196157 13.2196157,16.4900245 9.16112474,16.4900245 C5.10263417,16.4900245 1.83222495,13.2196157 1.83222495,9.16112474 C1.83222495,5.10263417 5.10263417,1.83222495 9.16112474,1.83222495 Z" id="Shape"></path>
        </g>
    </g>
</svg>