<?xml version="1.0" encoding="UTF-8"?>
<svg width="21px" height="21px" viewBox="0 0 21 21" version="1.1" xmlns="http://www.w3.org/2000/svg" xmlns:xlink="http://www.w3.org/1999/xlink">
    <!-- Generator: Sketch 64 (93537) - https://sketch.com -->
    <title>bed</title>
    <desc>Created with Sketch.</desc>
    <g id="Page-1" stroke="none" stroke-width="1" fill="none" fill-rule="evenodd">
        <g id="bed" fill="#000000" fill-rule="nonzero">
            <path d="M5.25,0 C3.52227278,0 2.1,1.3545455 2.1,3 L2.1,10.1875 C0.884700075,10.604757 0,11.706491 0,13 L0,21 L5.25,21 L5.25,19 L15.75,19 L15.75,21 L21,21 L21,13 C21,11.706491 20.1153005,10.604757 18.9,10.1875 L18.9,3 C18.9,1.3545455 17.4777277,0 15.75,0 L5.25,0 Z M5.25,2 L15.75,2 C16.3322723,2 16.8,2.4454545 16.8,3 L16.8,10 L14.7,10 L14.7,9 C14.7,7.354545 13.2777278,6 11.55,6 L9.45,6 C7.72227225,6 6.3,7.354545 6.3,9 L6.3,10 L4.2,10 L4.2,3 C4.2,2.4454545 4.66772722,2 5.25,2 Z M9.45,8 L11.55,8 C12.1322722,8 12.6,8.445455 12.6,9 L12.6,10 L8.4,10 L8.4,9 C8.4,8.445455 8.86772775,8 9.45,8 Z M3.15,12 L17.85,12 C18.4322723,12 18.9,12.445455 18.9,13 L18.9,19 L17.85,19 L17.85,17 L3.15,17 L3.15,19 L2.1,19 L2.1,13 C2.1,12.445455 2.56772723,12 3.15,12 Z" id="Shape"></path>
        </g>
    </g>
</svg>