<?xml version="1.0" encoding="UTF-8"?>
<svg width="21px" height="21px" viewBox="0 0 21 21" version="1.1" xmlns="http://www.w3.org/2000/svg" xmlns:xlink="http://www.w3.org/1999/xlink">
    <!-- Generator: Sketch 64 (93537) - https://sketch.com -->
    <title>square</title>
    <desc>Created with Sketch.</desc>
    <g id="Page-1" stroke="none" stroke-width="1" fill="none" fill-rule="evenodd">
        <g id="square" fill="#000000" fill-rule="nonzero">
            <path d="M4.3749998,0 C1.96877634,0 0,1.96877634 0,4.3749998 L0,16.6249992 C0,19.0312229 1.96877634,21 4.3749998,21 L16.6249992,21 C19.0312229,21 21,19.0312229 21,16.6249992 L21,4.3749998 C21,1.96877634 19.0312229,0 16.6249992,0 L4.3749998,0 Z M4.3749998,1.74999992 L16.6249992,1.74999992 C18.0862754,1.74999992 19.2499999,2.91372344 19.2499999,4.3749998 L19.2499999,16.6249992 C19.2499999,18.0862754 18.0862754,19.2499999 16.6249992,19.2499999 L4.3749998,19.2499999 C2.91372344,19.2499999 1.74999992,18.0862754 1.74999992,16.6249992 L1.74999992,4.3749998 C1.74999992,2.91372344 2.91372344,1.74999992 4.3749998,1.74999992 Z M7.87499964,5.24999976 C6.43556976,5.24999976 5.24999976,6.43556976 5.24999976,7.87499964 L5.24999976,13.1249994 C5.24999976,14.5644286 6.43556976,15.7499998 7.87499964,15.7499998 L13.1249994,15.7499998 C14.5644286,15.7499998 15.7499998,14.5644286 15.7499998,13.1249994 L15.7499998,7.87499964 C15.7499998,6.43556976 14.5644286,5.24999976 13.1249994,5.24999976 L7.87499964,5.24999976 Z M7.87499964,6.99999968 L13.1249994,6.99999968 C13.6175694,6.99999968 13.9999997,7.38242961 13.9999997,7.87499964 L13.9999997,13.1249994 C13.9999997,13.6175694 13.6175694,13.9999997 13.1249994,13.9999997 L7.87499964,13.9999997 C7.38242961,13.9999997 6.99999968,13.6175694 6.99999968,13.1249994 L6.99999968,7.87499964 C6.99999968,7.38242961 7.38242961,6.99999968 7.87499964,6.99999968 Z" id="Shape"></path>
        </g>
    </g>
</svg>