<?xml version="1.0" encoding="UTF-8"?>
<svg width="498px" height="498px" viewBox="0 0 498 498" version="1.1" xmlns="http://www.w3.org/2000/svg" xmlns:xlink="http://www.w3.org/1999/xlink">
    <!-- Generator: Sketch 64 (93537) - https://sketch.com -->
    <title>6</title>
    <desc>Created with Sketch.</desc>
    <g id="Page-1" stroke="none" stroke-width="1" fill="none" fill-rule="evenodd">
        <g id="6" fill="#8588A2" fill-rule="nonzero">
            <path d="M424.36,73.64 C361.822142,10.4331533 270.231962,-14.456867 184.304839,8.4039909 C98.377717,31.2648487 31.2648487,98.377717 8.4039909,184.304839 C-14.456867,270.231962 10.4331533,361.822142 73.64,424.36 C136.177858,487.566847 227.768038,512.456867 313.695161,489.596009 C399.622283,466.735151 466.735151,399.622283 489.596009,313.695161 C512.456867,227.768038 487.566847,136.177858 424.36,73.64 Z M413.05,413.05 C322.447686,503.652311 175.552315,503.65231 84.9500024,413.049998 C-5.65230981,322.447685 -5.65231091,175.552314 84.95,84.95 C175.552313,-5.65231321 322.447687,-5.65231321 413.05,84.95 C503.652313,175.552313 503.652313,322.447687 413.05,413.05 Z" id="Shape"></path>
            <path d="M401.73,96.27 C347.269609,41.1765122 267.475879,19.4664935 192.609673,39.3732211 C117.743467,59.2799486 59.2706518,117.754678 39.3663751,192.621536 C19.4620985,267.488394 41.1747293,347.281412 96.27,401.74 C150.730391,456.833488 230.524121,478.543506 305.390327,458.636779 C380.256533,438.730051 438.729348,380.255322 458.633625,305.388464 C478.537901,230.521606 456.825271,150.728588 401.73,96.27 Z M249,449 C138.72,449 49,359.28 49,249 C49,138.72 138.72,49 249,49 C359.28,49 449,138.72 449,249 C449,359.28 359.28,449 249,449 Z" id="Shape"></path>
            <path d="M249,201 C222.490332,201 201,222.490332 201,249 C201,275.509668 222.490332,297 249,297 C275.509668,297 297,275.509668 297,249 C296.971891,222.501984 275.498016,201.028109 249,201 L249,201 Z M249,281 C231.326888,281 217,266.673112 217,249 C217,231.326888 231.326888,217 249,217 C266.673112,217 281,231.326888 281,249 C280.98016,266.664888 266.664888,280.98016 249,281 Z" id="Shape"></path>
        </g>
    </g>
</svg>