<?xml version="1.0" encoding="UTF-8"?>
<svg width="382px" height="512px" viewBox="0 0 382 512" version="1.1" xmlns="http://www.w3.org/2000/svg" xmlns:xlink="http://www.w3.org/1999/xlink">
    <!-- Generator: Sketch 64 (93537) - https://sketch.com -->
    <title>hotel</title>
    <desc>Created with Sketch.</desc>
    <g id="Page-1" stroke="none" stroke-width="1" fill="none" fill-rule="evenodd">
        <g id="hotel" fill="#F2FFFF" fill-rule="nonzero">
            <path d="M238.274,74.86 L267.134,74.86 C271.277,74.86 274.634,71.503 274.634,67.36 C274.634,63.217 271.277,59.86 267.134,59.86 L245.774,59.86 L245.774,44.93 L267.134,44.93 C271.277,44.93 274.634,41.573 274.634,37.43 C274.634,33.287 271.277,29.93 267.134,29.93 L245.774,29.93 L245.774,15 L267.134,15 C271.277,15 274.634,11.643 274.634,7.5 C274.634,3.357 271.277,0 267.134,0 L238.274,0 C234.131,0 230.774,3.357 230.774,7.5 L230.774,67.36 C230.774,71.503 234.132,74.86 238.274,74.86 Z" id="Path"></path>
            <path d="M179.53,15 L186.96,15 L186.96,67.36 C186.96,71.503 190.317,74.86 194.46,74.86 C198.603,74.86 201.96,71.503 201.96,67.36 L201.96,15 L209.391,15 C213.534,15 216.891,11.643 216.891,7.5 C216.891,3.357 213.534,0 209.391,0 L179.531,0 C175.388,0 172.031,3.357 172.031,7.5 C172.031,11.643 175.388,15 179.53,15 Z" id="Path"></path>
            <path d="M121.677,74.86 L151.537,74.86 C155.68,74.86 159.037,71.503 159.037,67.36 L159.037,7.5 C159.037,3.357 155.68,0 151.537,0 L121.677,0 C117.534,0 114.177,3.357 114.177,7.5 L114.177,67.36 C114.177,71.503 117.534,74.86 121.677,74.86 L121.677,74.86 Z M129.177,15 L144.037,15 L144.037,59.86 L129.177,59.86 L129.177,15 Z" id="Shape"></path>
            <path d="M364.72,467.048 L333.635,467.048 L333.635,133.787 C345.324,130.514 353.919,119.786 353.919,107.092 C353.919,97.591 346.176,89.861 336.658,89.861 L333.635,89.861 L333.635,67.361 C333.635,63.218 330.278,59.861 326.135,59.861 L304.775,59.861 L304.775,7.5 C304.775,3.357 301.418,0 297.275,0 C293.132,0 289.775,3.357 289.775,7.5 L289.775,67.36 C289.775,71.503 293.132,74.86 297.275,74.86 L318.635,74.86 L318.635,89.86 L69.177,89.86 L69.177,44.93 L84.037,44.93 L84.037,67.36 C84.037,71.503 87.394,74.86 91.537,74.86 C95.68,74.86 99.037,71.503 99.037,67.36 L99.037,7.5 C99.037,3.357 95.68,0 91.537,0 C87.394,0 84.037,3.357 84.037,7.5 L84.037,29.931 L69.177,29.931 L69.177,7.5 C69.177,3.357 65.82,0 61.677,0 C57.534,0 54.177,3.357 54.177,7.5 L54.177,89.86 L51.154,89.86 C41.636,89.86 33.893,97.59 33.893,107.091 C33.893,119.785 42.488,130.513 54.177,133.786 L54.177,467.047 L17.28,467.047 C7.752,467.047 -2.84217094e-14,474.777 -2.84217094e-14,484.278 C-2.84217094e-14,499.564 12.481,512 27.824,512 L354.176,512 C369.519,512 382,499.564 382,484.279 C382,474.778 374.248,467.048 364.72,467.048 L364.72,467.048 Z M354.176,497 L27.824,497 C20.753,497 15,491.294 15,484.279 C15,483.049 16.022,482.048 17.28,482.048 L258.922,482.048 C263.065,482.048 266.422,478.691 266.422,474.548 C266.422,470.405 263.065,467.048 258.922,467.048 L221.405,467.048 L221.405,337.316 C221.405,333.173 218.048,329.816 213.905,329.816 L173.905,329.816 C169.762,329.816 166.405,333.173 166.405,337.316 L166.405,467.047 L69.176,467.047 L69.176,134.919 L96.552,134.919 C100.695,134.919 104.052,131.562 104.052,127.419 C104.052,123.276 100.695,119.919 96.552,119.919 L61.676,119.919 L61.676,119.814 C54.627,119.814 48.892,114.107 48.892,107.092 C48.892,105.862 49.907,104.861 51.153,104.861 L336.658,104.861 C337.905,104.861 338.919,105.862 338.919,107.092 C338.919,114.107 333.184,119.814 326.135,119.814 L326.135,119.919 L131.692,119.919 C127.549,119.919 124.192,123.276 124.192,127.419 C124.192,131.562 127.549,134.919 131.692,134.919 L318.634,134.919 L318.634,467.048 L293.89,467.048 C289.747,467.048 286.39,470.405 286.39,474.548 C286.39,478.691 289.747,482.048 293.89,482.048 L364.72,482.048 C365.978,482.048 367,483.049 367,484.279 C367,491.294 361.247,497 354.176,497 Z M206.405,359.816 L181.405,359.816 L181.405,344.816 L206.405,344.816 L206.405,359.816 Z M181.405,374.816 L206.405,374.816 L206.405,467.047 L181.405,467.047 L181.405,374.816 Z" id="Shape"></path>
            <path d="M131.692,150.043 L91.692,150.043 C87.549,150.043 84.192,153.4 84.192,157.543 L84.192,217.543 C84.192,221.686 87.549,225.043 91.692,225.043 L131.692,225.043 C135.835,225.043 139.192,221.686 139.192,217.543 L139.192,157.543 C139.192,153.4 135.835,150.043 131.692,150.043 Z M124.192,165.043 L124.192,180.043 L99.192,180.043 L99.192,165.043 L124.192,165.043 Z M99.192,210.043 L99.192,195.043 L124.192,195.043 L124.192,210.043 L99.192,210.043 Z" id="Shape"></path>
            <path d="M131.692,239.88 L91.692,239.88 C87.549,239.88 84.192,243.237 84.192,247.38 L84.192,307.38 C84.192,311.523 87.549,314.88 91.692,314.88 L131.692,314.88 C135.835,314.88 139.192,311.523 139.192,307.38 L139.192,247.38 C139.192,243.237 135.835,239.88 131.692,239.88 Z M124.192,254.88 L124.192,269.88 L99.192,269.88 L99.192,254.88 L124.192,254.88 Z M99.192,299.88 L99.192,284.88 L124.192,284.88 L124.192,299.88 L99.192,299.88 Z" id="Shape"></path>
            <path d="M131.692,329.816 L91.692,329.816 C87.549,329.816 84.192,333.173 84.192,337.316 L84.192,429.098 C84.192,433.241 87.549,436.598 91.692,436.598 L131.692,436.598 C135.835,436.598 139.192,433.241 139.192,429.098 L139.192,337.316 C139.192,333.174 135.835,329.816 131.692,329.816 Z M124.192,344.816 L124.192,359.816 L99.192,359.816 L99.192,344.816 L124.192,344.816 Z M99.192,421.599 L99.192,374.817 L124.192,374.817 L124.192,421.599 L99.192,421.599 Z" id="Shape"></path>
            <path d="M213.905,150.043 L173.905,150.043 C169.762,150.043 166.405,153.4 166.405,157.543 L166.405,217.543 C166.405,221.686 169.762,225.043 173.905,225.043 L213.905,225.043 C218.048,225.043 221.405,221.686 221.405,217.543 L221.405,157.543 C221.405,153.4 218.048,150.043 213.905,150.043 Z M206.405,165.043 L206.405,180.043 L181.405,180.043 L181.405,165.043 L206.405,165.043 Z M181.405,210.043 L181.405,195.043 L206.405,195.043 L206.405,210.043 L181.405,210.043 Z" id="Shape"></path>
            <path d="M213.905,239.88 L173.905,239.88 C169.762,239.88 166.405,243.237 166.405,247.38 L166.405,307.38 C166.405,311.523 169.762,314.88 173.905,314.88 L213.905,314.88 C218.048,314.88 221.405,311.523 221.405,307.38 L221.405,247.38 C221.405,243.237 218.048,239.88 213.905,239.88 Z M206.405,254.88 L206.405,269.88 L181.405,269.88 L181.405,254.88 L206.405,254.88 Z M181.405,299.88 L181.405,284.88 L206.405,284.88 L206.405,299.88 L181.405,299.88 Z" id="Shape"></path>
            <path d="M256.405,225.043 L296.405,225.043 C300.548,225.043 303.905,221.686 303.905,217.543 L303.905,157.543 C303.905,153.4 300.548,150.043 296.405,150.043 L256.405,150.043 C252.262,150.043 248.905,153.4 248.905,157.543 L248.905,217.543 C248.905,221.686 252.263,225.043 256.405,225.043 Z M263.905,210.043 L263.905,195.043 L288.905,195.043 L288.905,210.043 L263.905,210.043 Z M288.905,165.043 L288.905,180.043 L263.905,180.043 L263.905,165.043 L288.905,165.043 Z" id="Shape"></path>
            <path d="M256.405,314.88 L296.405,314.88 C300.548,314.88 303.905,311.523 303.905,307.38 L303.905,247.38 C303.905,243.237 300.548,239.88 296.405,239.88 L256.405,239.88 C252.262,239.88 248.905,243.237 248.905,247.38 L248.905,307.38 C248.905,311.522 252.263,314.88 256.405,314.88 Z M263.905,299.88 L263.905,284.88 L288.905,284.88 L288.905,299.88 L263.905,299.88 Z M288.905,254.88 L288.905,269.88 L263.905,269.88 L263.905,254.88 L288.905,254.88 Z" id="Shape"></path>
            <path d="M303.905,429.099 L303.905,337.317 C303.905,333.174 300.548,329.817 296.405,329.817 L256.405,329.817 C252.262,329.817 248.905,333.174 248.905,337.317 L248.905,429.099 C248.905,433.242 252.262,436.599 256.405,436.599 L296.405,436.599 C300.548,436.599 303.905,433.241 303.905,429.099 Z M288.905,344.816 L288.905,359.816 L263.905,359.816 L263.905,344.816 L288.905,344.816 Z M263.905,421.599 L263.905,374.817 L288.905,374.817 L288.905,421.599 L263.905,421.599 Z" id="Shape"></path>
        </g>
    </g>
</svg>