<?xml version="1.0" encoding="UTF-8"?>
<svg width="399px" height="132px" viewBox="0 0 399 132" version="1.1" xmlns="http://www.w3.org/2000/svg" xmlns:xlink="http://www.w3.org/1999/xlink">
    <!-- Generator: Sketch 64 (93537) - https://sketch.com -->
    <title>Kinsley</title>
    <desc>Created with Sketch.</desc>
    <g id="Page-1" stroke="none" stroke-width="1" fill="none" fill-rule="evenodd">
        <g id="logo" fill="#FFFFFF" fill-rule="nonzero">
            <path d="M93.7863728,128.298067 C96.7987889,129.608253 99.8498256,130.128474 102.939483,129.85873 C106.029141,129.588986 108.925694,128.452207 111.629145,126.448392 C113.096732,125.369415 114.332595,124.097764 115.336734,122.633438 C117.80846,119.088228 118.88984,115.658623 118.580874,112.344622 C118.194667,109.878389 117.074666,109.030621 115.220872,109.801319 C109.505005,112.267552 103.905001,110.109598 98.420859,103.327458 C92.936717,96.5453167 89.4994731,86.3335705 88.1091272,72.6922189 C98.4594798,66.9119853 107.187762,58.5884487 114.293974,47.7216094 C121.322945,36.9318398 125.185017,25.7952562 125.88019,14.3118586 C126.034673,11.9997652 125.416741,9.76474146 124.026395,7.60678754 C122.636049,5.44883363 120.936738,3.7918333 118.92846,2.63578656 C116.920183,1.47973983 114.873285,0.670507109 112.787766,0.208088413 C110.702247,-0.254330283 109.080177,0.0539488481 107.921556,1.1329258 C107.689831,1.28706537 107.516038,1.46047238 107.400176,1.65314684 C107.284314,1.84582129 107.187762,2.03849575 107.110521,2.23117021 C107.033279,2.42384466 106.956038,2.73212379 106.878796,3.1560076 C106.801555,3.5798914 106.743624,3.98450776 106.705003,4.36985667 C106.666382,4.75520559 106.608451,5.33322896 106.53121,6.10392678 C106.453968,6.87462461 106.376727,7.60678754 106.299486,8.30041559 C105.913278,11.2290673 105.256726,14.1191842 104.329829,16.9707661 C97.3008582,38.8585844 86.7187814,52.8467499 72.5835985,58.9352628 C76.4456703,44.677353 78.9946377,28.4541637 80.2305007,10.265695 C80.3077421,8.26188069 79.4001552,6.68195015 77.50774,5.52590341 C75.6153248,4.36985667 73.2401507,3.8303682 70.3822175,3.90743798 L70.3822175,3.90743798 L70.1504932,3.90743798 C53.9297915,4.83227537 39.1766771,9.61060189 25.89115,18.2424175 C12.6828643,26.951303 4.45665127,36.4694211 1.21251093,46.796772 C-1.10473218,54.2725409 -0.100593499,60.2454491 4.22492696,64.7154964 C8.55044741,69.1084741 14.227693,71.1508233 21.2566638,70.8425442 C23.7283897,70.7654744 25.6594256,70.2645208 27.0497715,69.3396834 C28.9808074,68.1065669 28.9421867,66.7578457 26.9339094,65.2935198 C24.7711491,63.7521242 23.5159758,61.5941703 23.1683893,58.8196581 C22.8208028,56.0451459 23.4387343,52.9238197 25.0221838,49.4556795 C26.6056332,45.9875393 28.8842556,42.4615967 31.8580509,38.8778518 C34.8318463,35.2941069 38.7711595,31.7488969 43.6759908,28.2422218 C48.580822,24.7355467 54.0070329,21.7105578 59.9546235,19.1672549 C57.4828976,39.5136775 53.85255,55.8139366 49.063581,68.068032 C44.7380605,79.4743598 39.7946086,87.4896172 34.2332251,92.1138042 C26.5863229,98.3564566 19.4028693,99.0500846 12.6828643,94.1946883 C12.6056228,94.1176185 12.5283814,94.0790836 12.45114,94.0790836 C12.3738985,94.0790836 12.3352778,94.0405487 12.3352778,93.9634789 C10.3270005,92.8074322 8.78217172,93.7322696 7.70079161,96.7379911 C6.15596288,100.59148 6.27182503,104.791783 8.04837807,109.338901 C9.51596537,113.577739 12.2580364,116.58346 16.2745911,118.356065 C22.5311475,121.130577 29.5987389,120.244275 37.4773655,115.697158 C48.6001324,109.454505 57.9463462,97.3930843 65.516007,79.5128947 L65.516007,79.5128947 L66.5587664,79.5128947 C67.4084222,85.7555471 68.740837,91.632118 70.5560107,97.1426075 C72.3711845,102.653097 74.4760137,107.431423 76.8704982,111.477587 C79.2649827,115.523751 81.9298123,119.011158 84.8649869,121.93981 C87.8001615,124.868462 90.7739568,126.987881 93.7863728,128.298067 Z M138.148106,31.6525597 C141.237763,31.6525597 144.134317,30.6506525 146.837767,28.6468382 C149.541218,26.5659541 151.395012,24.3694653 152.399151,22.0573718 C153.789497,19.0516503 153.596393,16.5468823 151.81984,14.543068 C150.120529,12.6163234 147.880527,11.5758813 145.099835,11.4217418 C140.233625,11.1905324 136.410174,12.0768349 133.629482,14.0806493 C130.84879,16.0844636 129.458444,18.5506967 129.458444,21.4793484 C129.458444,24.5621397 130.32741,27.0283728 132.065343,28.8780475 C133.803275,30.7277223 135.830863,31.6525597 138.148106,31.6525597 Z M130.964652,106.795598 C137.761899,107.489226 143.902593,105.177132 149.386735,99.8593173 C154.793635,94.5415023 158.848811,87.5281521 161.552261,78.8192667 C162.01571,77.3549408 161.822606,75.85208 160.97295,74.3106844 C159.659846,71.7673816 157.497086,70.2259859 154.48467,69.6864974 C151.472254,68.9928694 149.65708,69.8791719 149.039148,72.3454049 C147.880527,77.3549408 146.103974,81.5937788 143.709489,85.0619191 C141.315005,88.6071291 138.997762,90.3797341 136.75776,90.3797341 C135.753621,90.3797341 135.058448,89.686106 134.672241,88.2988499 C134.286034,86.9115938 134.170172,85.1004539 134.324655,82.8654302 C134.479138,80.6304066 134.730172,78.4724526 135.077759,76.3915685 C135.425345,74.3106844 135.830863,72.2683351 136.294311,70.2645208 C139.46121,57.9333556 141.932936,50.2263773 143.709489,47.143586 C144.636387,45.5251206 144.018455,43.8681203 141.855695,42.172585 C139.692935,40.39998 137.143967,39.5136775 134.208793,39.5136775 C129.806031,39.4366078 126.137062,41.8835734 123.201888,46.8545743 C120.266713,51.8255753 117.833608,59.4362163 115.902572,69.6864974 C113.971536,79.7055692 114.396364,88.260315 117.177056,95.350735 C120.11223,102.441155 124.708096,106.256109 130.964652,106.795598 Z M148.562227,107.373621 C151.574643,108.915017 154.548439,109.41597 157.483613,108.876482 C160.496029,108.259924 162.1181,106.795598 162.349824,104.483504 C163.044997,97.4701541 163.547066,92.7688973 163.856032,90.3797341 L163.856032,90.3797341 L164.319481,88.6456639 C165.709826,82.3259418 168.336035,75.2740567 172.198107,67.4900086 C175.982937,59.8601001 179.149836,56.0451459 181.698804,56.0451459 C183.475357,56.0451459 184.363633,57.9718905 184.363633,61.8253796 C184.440875,63.3667753 184.17053,66.1412874 183.552598,70.1489161 C183.475357,70.534265 183.340184,71.266428 183.147081,72.3454049 C182.953977,73.4243819 182.818805,74.2336146 182.741563,74.7731031 C182.741563,74.9272426 182.722253,75.158452 182.683632,75.4667311 C182.645011,75.7750103 182.58708,76.0062196 182.509839,76.1603592 C179.34294,95.2736652 184.556737,105.485411 198.15123,106.795598 C204.948476,107.489226 211.05055,105.177132 216.45745,99.8593173 C222.018834,94.4644325 226.11263,87.4510823 228.738839,78.8192667 C229.202287,77.2008012 229.009184,75.6208707 228.159528,74.079475 C226.614699,71.6903118 224.413318,70.187451 221.555385,69.5708928 C218.465728,69.0314043 216.650554,69.9562417 216.109864,72.3454049 C215.028484,77.2008012 213.290551,81.4011044 210.896067,84.9463144 C208.424341,88.5685942 206.068477,90.3797341 203.828475,90.3797341 C202.360888,90.5338736 201.202267,90.0136526 200.352611,88.819071 C199.502955,87.6244893 199.078127,85.3894656 199.078127,82.1139999 C199.078127,78.8385341 199.696059,74.6574984 200.931922,69.5708928 C203.171923,61.0161469 204.021579,54.2725409 203.480889,49.3400748 C203.01744,43.8681203 200.082266,40.6311894 194.675365,39.6292822 C186.178807,38.0108168 177.682249,43.2900969 169.185691,55.4671225 C170.267071,50.688796 171.348451,47.0279813 172.429831,44.4846785 C173.279487,42.4037944 172.89328,40.6311894 171.27121,39.1668635 C169.64914,37.6254679 166.907069,37.2786538 163.044997,38.1264215 C159.028442,38.9741891 155.919474,41.4211547 153.718093,45.4673182 C151.516712,49.5134818 149.79809,55.2359132 148.562227,62.6346123 C145.704294,79.2816854 144.275328,92.1523391 144.275328,101.246573 C144.275328,103.866946 145.704294,105.909295 148.562227,107.373621 Z M226.75571,106.564388 C235.175026,108.259924 242.281239,107.026807 248.074346,102.865039 C253.867454,98.7032706 256.764008,92.3064786 256.764008,83.674663 C256.764008,80.823081 256.146076,78.183441 254.910213,75.7557428 C253.67435,73.3280447 252.187453,71.2856954 250.44952,69.6286951 C248.711588,67.9716948 246.954345,66.4302991 245.177792,65.0045081 C243.401239,63.5787172 241.895031,62.1721936 240.659168,60.7849375 C239.423305,59.3976814 238.805374,58.0489603 238.805374,56.7387739 C238.805374,53.6559826 240.002616,52.114587 242.397101,52.114587 C243.864688,52.114587 244.830206,52.8660174 245.293655,54.3688781 C245.757103,55.8717389 245.679862,57.3553322 245.06193,58.8196581 C244.752965,60.0527746 244.984689,61.0161469 245.757103,61.7097749 C247.147449,62.9428914 249.310209,62.8658217 252.245384,61.4785656 C256.107456,59.7059606 258.347457,56.6231693 258.965389,52.2301917 C259.58332,47.6830745 258.48263,44.0607947 255.663317,41.3633523 C252.844005,38.6659099 248.962623,37.2786538 244.019171,37.2015841 C237.994339,37.2015841 232.973645,38.7429797 228.957091,41.825771 C224.940536,44.9085623 222.932259,49.3786097 222.932259,55.2359132 C222.932259,59.8601001 225.481226,64.4842871 230.579161,69.1084741 C232.66468,70.9581488 234.479853,73.2509749 236.024682,75.9869522 C237.569511,78.7229294 238.341925,81.4011044 238.341925,84.021477 C238.341925,86.5647798 237.569511,88.4529895 236.024682,89.686106 C234.479853,90.9192225 232.66468,91.1889668 230.579161,90.4953387 C226.021916,88.9539431 225.365364,83.2893141 228.609504,73.5014517 C228.91847,72.4995445 228.879849,71.5361722 228.493642,70.6113348 C227.412262,68.6075205 225.326743,67.6441482 222.237086,67.721218 C218.297772,67.8753575 215.47846,69.5708928 213.779148,72.8078236 C211.230181,78.2027084 210.206732,83.2507792 210.708801,87.9520359 C211.210871,92.6532926 212.948803,96.7187237 215.922598,100.148329 C218.896394,103.577934 222.507431,105.716621 226.75571,106.564388 Z M277.721586,106.448784 C290.543664,106.448784 299.812637,97.12334 305.528503,78.4724526 C305.991951,76.931057 305.798848,75.3896613 304.949192,73.8482657 C303.404363,71.3049629 301.202982,69.7635672 298.345049,69.2240787 C295.255392,68.6845903 293.440218,69.5708928 292.899528,71.8829862 C291.818148,76.8154523 290.080215,81.0542904 287.685731,84.5995004 C285.368488,88.2217801 283.051245,90.03292 280.734002,90.03292 C279.961587,90.03292 279.247104,89.686106 278.590552,88.992478 C277.934,88.2988499 277.41262,87.2006055 277.026413,85.6977448 C276.640206,84.194884 276.408481,82.3644767 276.33124,80.2065227 C276.253998,78.0485688 276.389171,75.3703939 276.736757,72.1719979 C277.084344,68.9736019 277.682965,65.4861943 278.532621,61.7097749 C280.231932,54.4652154 283.051245,46.7582371 286.990558,38.5888401 C291.084354,30.1111641 294.444357,23.9841163 297.070566,20.207697 C298.151946,18.7433711 297.727118,17.0478359 295.796082,15.1210913 C293.942287,13.1943468 291.509182,12.0383 288.496766,11.6529511 C282.626417,11.1134627 277.065033,15.3908356 271.812616,24.4850699 C266.714681,33.2710251 262.813988,45.1783066 260.110538,60.2069142 C257.638812,74.0024053 258.218123,85.1775237 261.84847,93.7322696 C265.478818,102.209946 270.769856,106.448784 277.721586,106.448784 Z M320.924697,107.720435 C329.498497,107.720435 336.836433,105.061528 342.938507,99.7437126 C349.195063,94.1946883 353.636446,87.219873 356.262654,78.8192667 C356.726103,77.2008012 356.532999,75.6208707 355.683344,74.079475 C354.215756,71.6903118 352.014375,70.187451 349.079201,69.5708928 C345.989543,69.0314043 344.17437,69.9562417 343.633679,72.3454049 C342.475058,77.277871 340.157815,81.6708486 336.68195,85.5243377 C333.206086,89.3778269 328.919186,91.3045714 323.821251,91.3045714 C317.255729,91.3045714 312.698484,89.0310129 310.149517,84.4838957 C317.101246,83.4049187 323.164699,80.9772206 328.339875,77.2008012 C333.746776,73.3473121 337.068157,68.1065669 338.30402,61.4785656 C339.539883,55.9295412 338.767469,50.9970751 335.986777,46.6811673 C333.360568,42.3652595 328.726082,40.1302358 322.083319,39.9760962 C313.895726,39.9760962 306.982618,42.8662131 301.343993,48.6464468 C295.705368,54.4266805 292.229503,62.9428914 290.916399,74.1950797 C290.221226,80.9772206 291.206054,86.9886636 293.870884,92.2294088 C296.535713,97.4701541 300.301233,101.400713 305.167444,104.021086 C309.956413,106.487319 315.208831,107.720435 320.924697,107.720435 Z M308.527446,72.4610096 C309.222619,67.1431946 310.477793,63.0392287 312.292967,60.1491118 C314.10814,57.258995 316.097107,55.8139366 318.259868,55.8139366 C319.959179,55.8139366 321.272284,56.6039018 322.199181,58.1838324 C323.126078,59.7637629 323.24194,61.5556354 322.546767,63.5594497 C321.774353,65.7174036 320.113662,67.6441482 317.564695,69.3396834 C315.015727,71.0352186 312.003311,72.0756607 308.527446,72.4610096 Z M355.206423,131.997417 C366.483672,132.151556 376.02299,125.40795 383.824375,111.766599 C391.703001,98.1252472 396.723695,79.8211738 398.886455,56.8543786 C399.427145,50.3805169 398.036799,45.9875393 394.715418,43.6754458 C391.394036,41.2862825 387.416102,41.0936081 382.781616,43.0974224 C380.078165,44.2534692 378.72644,46.7197022 378.72644,50.4961216 C378.803682,51.8063079 378.72644,54.6964247 378.494716,59.1664721 C378.262991,62.8658217 377.722301,67.1431946 376.872646,71.9985909 C376.872646,72.0756607 376.853335,72.1527305 376.814715,72.2298003 C376.776094,72.30687 376.756783,72.3839398 376.756783,72.4610096 C373.821609,84.4068259 370.307124,90.3797341 366.213327,90.3797341 C363.046428,90.3797341 361.308496,87.913501 360.99953,82.9810349 C360.767806,78.1256386 361.54022,72.5766143 363.316773,66.3339619 C365.865741,56.6231693 368.028501,50.2263773 369.805054,47.143586 C370.731951,45.5251206 370.152641,43.8681203 368.067122,42.172585 C365.904362,40.39998 363.355394,39.5136775 360.42022,39.5136775 C356.403665,39.359538 352.90849,41.4404221 349.934695,45.7563299 C346.960899,50.0722378 344.585725,56.7773088 342.809172,65.8715432 C340.491929,78.2797782 341.148481,88.2217801 344.778829,95.6975491 C348.331935,103.096248 354.163663,106.795598 362.274014,106.795598 C364.436774,106.795598 366.213327,106.525854 367.603673,105.986365 C365.054706,111.38125 362.04229,114.232832 358.566425,114.541111 C353.082283,115.157669 349.220211,113.500669 346.98021,109.57011 C346.516761,108.799412 346.014692,108.298459 345.474002,108.067249 C343.77469,107.296551 342.036758,108.259924 340.260205,110.957366 C337.86572,114.425506 337.32503,118.24046 338.638134,122.402229 C339.565032,125.253811 341.515378,127.546637 344.489173,129.280707 C347.462969,131.014777 351.035385,131.920347 355.206423,131.997417 Z" id="Kinsley"></path>
        </g>
    </g>
</svg>