<?xml version="1.0" encoding="UTF-8"?>
<svg width="472px" height="512px" viewBox="0 0 472 512" version="1.1" xmlns="http://www.w3.org/2000/svg" xmlns:xlink="http://www.w3.org/1999/xlink">
    <!-- Generator: Sketch 64 (93537) - https://sketch.com -->
    <title>palm</title>
    <desc>Created with Sketch.</desc>
    <g id="Page-1" stroke="none" stroke-width="1" fill="none" fill-rule="evenodd">
        <g id="palm" fill="#F2FFFF" fill-rule="nonzero">
            <path d="M470.909,165.01 L470.838,164.744 C462.317,132.827 441.954,106.01 413.501,89.233 C385.083,72.476 351.817,67.621 319.827,75.564 C306.307,78.92 293.593,84.503 282.118,91.943 C307.751,59.26 348.991,43.876 389.818,51.79 C396.443,53.076 402.756,49.817 405.552,43.69 C408.321,37.625 406.655,30.785 401.422,26.684 L401.161,26.479 C375.113,6.163 342.703,-2.943 309.881,0.837 C277.108,4.614 247.645,20.809 226.922,46.438 C216.802,58.953 209.196,73.403 204.543,88.771 C199.331,84.525 193.784,80.684 187.946,77.316 C169.245,66.526 147.945,60.76 126.349,60.642 C119.201,60.616 112.047,61.172 105.054,62.335 C100.968,63.014 98.206,66.877 98.885,70.963 C99.564,75.049 103.427,77.812 107.513,77.132 C113.669,76.109 119.993,75.614 126.267,75.642 C155.472,75.801 182.703,87.334 202.94,107.37 C203.301,107.824 203.714,108.237 204.174,108.599 C205.822,110.283 207.422,112.023 208.97,113.821 C197.608,115.158 187.885,121.904 182.446,131.411 C165.482,122.525 146.586,117.626 127.286,117.182 C81.028,116.133 38.577,140.203 15.709,180.252 C17.511,144.12 36.774,111.354 67.667,92.158 C71.186,89.972 72.266,85.347 70.08,81.829 C67.894,78.311 63.27,77.231 59.751,79.416 C23.69,101.822 1.579,140.505 0.604,182.88 L0.593775561,183.206 C0.46,189.873 4.7,195.493 11.147,197.189 C12.414,197.522 13.68,197.684 14.922,197.684 C20.07,197.684 24.804,194.915 27.378,190.136 C47.145,153.427 85.284,131.21 126.94,132.178 C143.941,132.57 160.581,136.884 175.512,144.71 C150.362,142.102 124.879,147.144 102.645,159.306 C73.728,175.124 52.536,201.223 42.972,232.797 C33.395,264.409 36.571,297.931 51.924,327.208 L52.058,327.462 C54.584,332.251 59.3,335.037 64.443,335.037 C65.634,335.037 66.848,334.887 68.064,334.579 C74.591,332.921 78.923,327.281 78.842,320.543 C78.378,282.068 97.607,246.819 129.571,226.403 C129.439,226.802 129.298,227.197 129.171,227.599 C121.401,252.085 123.521,278.203 135.139,301.141 C146.771,324.107 166.616,341.281 190.995,349.491 L191.246,349.575 C192.615,350.032 193.999,350.253 195.357,350.253 C199.578,350.253 203.533,348.116 205.914,344.311 C209.038,339.318 208.34,332.891 204.217,328.681 C182.355,306.361 174.963,274.118 184.925,244.535 C187.13,237.987 190.116,231.826 193.805,226.106 C200.128,232.049 208.628,235.7 217.97,235.7 C219.917,235.7 221.824,235.535 223.686,235.231 C224.913,241.322 226.035,247.715 227.033,254.339 C231.219,282.125 233.341,314.165 233.341,349.569 C233.341,409.688 215.418,446.783 200.383,467.316 C184.163,489.466 167.707,497.669 167.57,497.735 C164.41,499.246 162.717,502.744 163.491,506.16 C164.266,509.576 167.303,512.001 170.805,512.001 L255.467,512.001 C258.253,512.001 260.81,510.456 262.107,507.99 C262.366,507.497 268.521,495.647 275.222,471.054 C275.834,468.807 276.464,466.396 277.104,463.835 C277.106,463.826 277.109,463.818 277.111,463.809 C282.459,442.394 288.512,410.021 291.143,366.654 C291.146,366.618 291.147,366.582 291.149,366.546 C291.328,363.585 291.493,360.578 291.639,357.514 C294.482,297.804 283.243,243.151 272.378,205.681 C274.68,204.826 276.867,203.733 278.915,202.44 C289.639,205.621 299.481,210.87 308.169,218.101 C332.164,238.068 342.774,269.399 335.86,299.869 C334.557,305.616 337.334,311.454 342.613,314.068 C344.45,314.978 346.384,315.419 348.287,315.419 C351.887,315.419 355.371,313.838 357.858,310.864 L358.016,310.674 C374.13,291.31 382.064,266.809 380.355,241.686 C380.074,237.553 376.496,234.44 372.364,234.712 C368.231,234.993 365.109,238.571 365.39,242.704 C366.617,260.745 361.968,278.405 352.208,293.342 C356.241,260.56 343.535,228.019 317.764,206.572 C309.508,199.701 300.368,194.332 290.508,190.535 C293.639,185.264 295.444,179.117 295.444,172.554 C295.444,170.562 295.27,168.611 294.951,166.708 C310.542,168.93 324.973,175.463 336.969,185.807 C342.767,190.807 347.823,196.552 351.996,202.885 C353.437,205.072 355.827,206.259 358.265,206.259 C359.682,206.259 361.115,205.858 362.385,205.02 C365.844,202.741 366.8,198.089 364.52,194.63 C359.585,187.142 353.612,180.352 346.765,174.447 C336.366,165.48 324.417,158.945 311.523,155.05 C319.221,150.832 327.433,147.54 336.107,145.225 C376.354,134.481 418.662,147.075 446.522,178.091 C449.35,181.239 453.166,182.891 457.082,182.891 C459.4,182.891 461.755,182.312 463.958,181.122 C469.826,177.952 472.622,171.492 470.909,165.01 Z M260.121,192.877 C248.915,192.877 239.798,183.76 239.798,172.553 C239.798,172.379 239.784,172.209 239.772,172.038 C243.675,167.55 246.473,162.077 247.718,156.04 C248.307,155.855 248.884,155.604 249.433,155.264 C252.634,153.279 256.33,152.23 260.121,152.23 C271.328,152.23 280.445,161.347 280.445,172.554 C280.445,183.761 271.328,192.877 260.121,192.877 Z M238.586,55.87 C256.824,33.315 282.753,19.063 311.599,15.739 C339.496,12.525 367.075,19.896 389.557,36.5 C344.086,28.847 298.556,46.469 270.099,82.953 C260.617,95.11 253.598,108.575 249.151,123.08 C247.227,125.705 245.398,128.41 243.672,131.194 C240.633,125.969 236.298,121.59 231.103,118.505 C226.95,112.036 222.211,105.966 216.966,100.371 C220.678,84.149 228.105,68.832 238.586,55.87 Z M213.121,128.569 C216.033,128.569 218.798,129.196 221.304,130.304 C222.058,130.916 222.912,131.368 223.822,131.647 C229.587,135.238 233.445,141.615 233.445,148.893 C233.445,160.1 224.328,169.217 213.121,169.217 C201.914,169.217 192.797,160.1 192.797,148.893 C192.797,137.686 201.915,128.569 213.121,128.569 Z M130.868,208.307 C89.896,229.794 64.434,271.442 63.844,317.556 C51.516,292.449 49.189,264.014 57.327,237.147 C65.745,209.358 84.396,186.387 109.843,172.467 C131.103,160.838 155.747,156.608 179.725,160.38 C180.622,162.979 181.812,165.441 183.26,167.728 C165.684,175.393 150.859,187.965 140.507,203.759 C137.253,205.13 134.011,206.659 130.868,208.307 Z M186.875,331.695 C170.325,323.908 156.903,310.913 148.521,294.364 C138.689,274.953 136.895,252.854 143.469,232.137 C150.522,209.908 166.672,191.875 187.675,182.19 C184.436,187.581 182.647,193.821 182.647,200.377 C182.647,204.699 183.431,208.841 184.858,212.672 C178.761,220.869 174.007,229.954 170.709,239.748 C160.008,271.525 166.249,305.895 186.875,331.695 Z M197.647,200.377 C197.647,193.595 200.953,187.39 206.525,183.589 C208.663,183.995 210.866,184.216 213.121,184.216 C217.674,184.216 222.024,183.341 226.024,181.765 C228.034,189.196 232.413,195.659 238.298,200.298 C238.298,200.324 238.294,200.35 238.294,200.376 C238.294,211.583 229.177,220.7 217.97,220.7 C206.764,220.7 197.647,211.583 197.647,200.377 Z M252.649,207.074 C254.183,207.406 255.755,207.633 257.356,207.758 C261.489,221.779 265.716,238.395 269.195,256.9 L243.208,261.718 C242.785,258.465 242.341,255.254 241.867,252.104 C240.685,244.255 239.331,236.703 237.836,229.566 C245.397,224.405 250.854,216.384 252.649,207.074 Z M263.832,454.699 L225.813,454.383 C230.253,445.664 234.466,435.541 238.025,423.901 L270.012,423.097 C268.101,435.065 265.976,445.569 263.832,454.699 Z M247.303,374.456 L275.633,373.744 C274.734,386.122 273.552,397.543 272.184,408.037 L242.046,408.795 C244.419,398.394 246.243,386.966 247.303,374.456 Z M276.657,356.8 C276.626,357.448 276.588,358.073 276.555,358.717 L248.172,359.43 C248.275,356.203 248.341,352.927 248.341,349.569 C248.341,342.454 248.253,335.474 248.085,328.626 L276.879,325.945 C277.195,336.028 277.155,346.333 276.657,356.8 Z M276.142,310.948 L247.569,313.609 C247.002,300.74 246.121,288.406 244.929,276.656 L271.736,271.685 C273.679,284.141 275.223,297.289 276.142,310.948 Z M250.655,497.001 L193.86,497.001 C199.418,491.951 205.641,485.39 211.842,477.048 C213.605,474.677 215.404,472.091 217.211,469.311 L259.985,469.666 C256.177,483.207 252.683,492.249 250.655,497.001 Z M332.239,130.732 C316.778,134.86 302.595,141.708 289.954,151.112 C289.385,151.104 288.828,151.156 288.292,151.271 C281.957,142.906 271.989,137.446 260.758,137.246 C260.987,136.759 261.183,136.252 261.306,135.705 C261.742,133.76 262.23,131.835 262.767,129.928 C277.864,110.288 299.188,96.142 323.442,90.121 C351.592,83.132 380.87,87.405 405.882,102.154 C430.059,116.409 447.599,138.902 455.535,165.734 C423.883,132.202 376.944,118.795 332.239,130.732 Z" id="Shape"></path>
        </g>
    </g>
</svg>